Brooklyn's Finest

source:

Brooklyns.Finest.720p.Bluray.x264-CBGB 
http://www.imdb.com/title/tt1210042/


ID                               : 1
Format                           : AVC
Format/Info                      : Advanced Video Codec
Format profile                   : Baseline@L2.0
Format settings, CABAC           : No
Format settings, ReFrames        : 3 frames
Codec ID                         : avc1
Codec ID/Info                    : Advanced Video Coding
Duration                         : 2h 12mn
Bit rate mode                    : Variable
Bit rate                         : 395 Kbps
Width                            : 480 pixels
Height                           : 208 pixels
Display aspect ratio             : 2.35:1
Frame rate mode                  : Variable
Frame rate                       : 23.976 fps
Minimum frame rate               : 23.810 fps
Maximum frame rate               : 24.390 fps
Color space                      : YUV
Chroma subsampling               : 4:2:0
Bit depth                        : 8 bits
Scan type                        : Progressive
Bits/(Pixel*Frame)               : 0.165
Stream size                      : 375 MiB (75%)
Writing library                  : x264 core 79

ID                               : 2
Format                           : AAC
Format/Info                      : Advanced Audio Codec
Format version                   : Version 4
Format profile                   : LC
Format settings, SBR             : No
Codec ID                         : 40
Duration                         : 2h 12mn
Bit rate mode                    : Variable
Bit rate                         : 128 Kbps
Maximum bit rate                 : 254 Kbps
Channel(s)                       : 2 channels
Channel positions                : Front: L R
Sampling rate                    : 48.0 KHz
Stream size                      : 121 MiB (24%)
Language                         : English 
http://img3.imageshack.us/img3/6051/vlcsnap00001yc.png 
http://img709.imageshack.us/img709/7130/vlcsnap00002u.png 
http://img532.imageshack.us/img532/7278/vlcsnap00003n.png 
http://img149.imageshack.us/img149/6532/vlcsnap00004w.png 
http://img638.imageshack.us/img638/4237/vlcsnap00005g.png 
http://img337.imageshack.us/img337/1021/vlcsnap00006m.png 
http://img4.imageshack.us/img4/3474/vlcsnap00007gs.png 
http://img408.imageshack.us/img408/566/vlcsnap00008k.png




PLEASE LET THE TORRENT SEED AND SHARE IT WITH ALL YOU KNOW!

Let me know what I can do to be your trusted source of Handheld videos.





-OOO